HIERARCHY
ROOT joint_Root
{
	OFFSET 0.0 0.0 0.0
	CHANNELS 6 Xposition Yposition Zposition Zrotation Xrotation Yrotation 
	JOINT Hips
	{
		OFFSET -0.726466 93.3139 -2.00062
		CHANNELS 6 Xposition Yposition Zposition Zrotation Xrotation Yrotation 
		JOINT Spine
		{
			OFFSET 15.7357 0.0 0.0
			CHANNELS 6 Xposition Yposition Zposition Zrotation Xrotation Yrotation 
			JOINT Chest
			{
				OFFSET 8.98455 -0.406207 0.0
				CHANNELS 6 Xposition Yposition Zposition Zrotation Xrotation Yrotation 
				JOINT Neck
				{
					OFFSET 16.3773 0.0 0.0
					CHANNELS 6 Xposition Yposition Zposition Zrotation Xrotation Yrotation 
					JOINT Head
					{
						OFFSET 6.45672 0.0 0.0
						CHANNELS 6 Xposition Yposition Zposition Zrotation Xrotation Yrotation 
						End Site
						{
							OFFSET 0.0 0.0 0.0
						}
					}
				}
				JOINT Shoulder_L
				{
					OFFSET 12.9942 -0.242716 4.98039
					CHANNELS 6 Xposition Yposition Zposition Zrotation Xrotation Yrotation 
					JOINT UpperArm_L
					{
						OFFSET 5.34809 0.0 0.0
						CHANNELS 6 Xposition Yposition Zposition Zrotation Xrotation Yrotation 
						JOINT LowerArm_L
						{
							OFFSET 24.3286 1.87007e-05 0.0
							CHANNELS 6 Xposition Yposition Zposition Zrotation Xrotation Yrotation 
							JOINT Hand_L
							{
								OFFSET 22.2916 0.0 0.0
								CHANNELS 6 Xposition Yposition Zposition Zrotation Xrotation Yrotation 
								End Site
								{
									OFFSET 0.0 0.0 0.0
								}
							}
						}
					}
				}
				JOINT Shoulder_R
				{
					OFFSET 12.9945 -0.242716 -4.98039
					CHANNELS 6 Xposition Yposition Zposition Zrotation Xrotation Yrotation 
					JOINT UpperArm_R
					{
						OFFSET -5.34813 0.0 0.0
						CHANNELS 6 Xposition Yposition Zposition Zrotation Xrotation Yrotation 
						JOINT LowerArm_R
						{
							OFFSET -24.3289 0.000322201 0.0
							CHANNELS 6 Xposition Yposition Zposition Zrotation Xrotation Yrotation 
							JOINT Hand_R
							{
								OFFSET -22.2915 -0.000108084 0.0
								CHANNELS 6 Xposition Yposition Zposition Zrotation Xrotation Yrotation 
								End Site
								{
									OFFSET 0.0 0.0 0.0
								}
							}
						}
					}
				}
			}
		}
		JOINT UpperLeg_L
		{
			OFFSET -2.19248 -6.46944 0.0
			CHANNELS 6 Xposition Yposition Zposition Zrotation Xrotation Yrotation 
			JOINT LowerLeg_L
			{
				OFFSET 39.0811 0.0 -1.23785e-05
				CHANNELS 6 Xposition Yposition Zposition Zrotation Xrotation Yrotation 
				JOINT Foot_L
				{
					OFFSET 40.9854 0.0 -1.26872e-05
					CHANNELS 6 Xposition Yposition Zposition Zrotation Xrotation Yrotation 
					JOINT Toes_L
					{
						OFFSET 11.7543 0.0 0.0
						CHANNELS 6 Xposition Yposition Zposition Zrotation Xrotation Yrotation 
						End Site
						{
							OFFSET 0.0 0.0 0.0
						}
					}
				}
			}
		}
		JOINT UpperLeg_R
		{
			OFFSET -2.19251 6.46944 0.0
			CHANNELS 6 Xposition Yposition Zposition Zrotation Xrotation Yrotation 
			JOINT LowerLeg_R
			{
				OFFSET -39.0811 -0.00228153 -0.0401928
				CHANNELS 6 Xposition Yposition Zposition Zrotation Xrotation Yrotation 
				JOINT Foot_R
				{
					OFFSET -40.9854 0.0 0.0
					CHANNELS 6 Xposition Yposition Zposition Zrotation Xrotation Yrotation 
					JOINT Toes_R
					{
						OFFSET -11.7543 0.0 0.0
						CHANNELS 6 Xposition Yposition Zposition Zrotation Xrotation Yrotation 
						End Site
						{
							OFFSET 0.0 0.0 0.0
						}
					}
				}
			}
		}
	}
}
MOTION
Frames:	8
Frame Time:	0.0333333
0.000000 0.000000 0.000000 0.000000 0.000000 -0.000000 -6.271570 89.167000 53.856800 -91.439800 6.242970 -173.482000 15.735700 0.000005 -0.000001 100.850000 82.426300 -101.969000 8.984550 -0.406207 -0.000000 7.146180 2.847280 -2.414320 16.377300 -0.000001 -0.000001 4.394130 -0.228921 -0.542495 6.456720 -0.000001 -0.000000 1.952300 -1.849980 -0.741105 12.994200 -0.242716 4.980390 -89.657300 -0.933207 -69.835200 5.348090 -0.000007 -0.000001 -73.478300 26.776900 -8.943420 24.328600 0.000019 0.000005 0.841061 2.422880 -19.172200 22.291600 -0.000001 0.000005 6.828080 5.421800 -3.646540 12.994500 -0.242716 -4.980390 88.218100 6.367020 -74.329500 -5.348130 -0.000001 -0.000004 -63.459200 31.086300 -25.211800 -24.328900 0.000322 -0.000009 2.820100 7.828460 -19.916700 -22.291500 -0.000108 -0.000004 9.051660 5.346870 -1.268720 -2.192480 -6.469440 -0.000000 177.573000 -10.730600 -17.595300 39.081100 -0.000007 -0.000012 -0.140602 0.178514 38.225300 40.985400 -0.000006 -0.000013 1.906900 -4.746950 -64.928100 11.754300 -0.000000 0.000003 -0.000022 -0.000279 -16.588500 -2.192510 6.469440 -0.000001 172.410000 4.190230 172.179000 -39.081100 -0.002282 -0.040193 0.131347 -0.049158 69.024000 -40.985400 0.000008 0.000006 6.836230 -4.126980 -40.139000 -11.754300 -0.000006 -0.000006 -0.026973 -0.203241 -24.892600
0.000000 0.000000 0.000000 0.000000 0.000000 -0.000000 -6.307690 89.892100 50.055900 -90.426600 4.365380 -173.101000 15.735700 0.000005 -0.000001 94.713400 82.425400 -95.423700 8.984550 -0.406207 -0.000000 7.341430 1.242870 -1.498910 16.377300 -0.000001 -0.000001 4.836660 -0.555027 -0.799540 6.456720 -0.000001 -0.000000 2.146680 -1.317340 -0.637777 12.994200 -0.242716 4.980390 -89.627200 -1.064040 -70.687200 5.348090 -0.000007 -0.000001 -70.385000 29.978700 -13.895100 24.328600 0.000019 0.000005 0.294273 0.697505 -22.927000 22.291600 -0.000001 0.000005 8.277580 5.460610 -5.015690 12.994500 -0.242716 -4.980390 88.208800 6.119000 -73.648900 -5.348130 -0.000001 -0.000004 -66.869700 31.888700 -21.108300 -24.328900 0.000322 -0.000009 3.454450 12.898800 -15.143200 -22.291500 -0.000108 -0.000004 7.393190 5.307150 -0.127984 -2.192480 -6.469440 -0.000000 178.769000 -10.109800 -13.248800 39.081100 -0.000007 -0.000012 -0.141401 0.192623 36.282100 40.985400 -0.000006 -0.000013 1.986200 -3.488550 -66.776600 11.754300 -0.000000 0.000003 -0.000022 -0.000272 -16.588200 -2.192510 6.469440 -0.000001 173.824000 6.804110 168.277000 -39.081100 -0.002282 -0.040193 0.153952 -0.052408 70.841800 -40.985400 0.000008 0.000006 5.258270 -4.591210 -42.624800 -11.754300 -0.000006 -0.000006 -0.025004 -0.193580 -24.492900
0.000000 0.000000 0.000000 0.000000 0.000000 -0.000000 -6.295520 90.581500 46.438600 -89.555100 2.278190 -173.086000 15.735700 0.000005 -0.000001 89.606200 82.519900 -89.889700 8.984550 -0.406207 -0.000000 7.193660 -0.101028 -0.559985 16.377300 -0.000001 -0.000001 5.278570 -1.345300 -1.135820 6.456720 -0.000001 -0.000000 2.412730 -1.013760 -0.266547 12.994200 -0.242716 4.980390 -89.537600 -1.395920 -71.669900 5.348090 -0.000007 -0.000001 -67.059200 32.072200 -19.360000 24.328600 0.000019 0.000005 0.052053 0.106492 -26.079900 22.291600 -0.000001 0.000005 9.260870 5.482120 -5.827520 12.994500 -0.242716 -4.980390 88.330900 5.338500 -72.609200 -5.348130 -0.000001 -0.000004 -71.003600 31.014100 -15.402800 -24.328900 0.000322 -0.000009 3.085340 14.256400 -12.349700 -22.291500 -0.000108 -0.000004 7.331640 5.289460 0.365944 -2.192480 -6.469440 -0.000000 179.836000 -9.066450 -9.121920 39.081100 -0.000007 -0.000012 -0.141035 0.212967 33.514400 40.985400 -0.000006 -0.000013 1.953270 -2.446140 -68.011100 11.754300 -0.000000 0.000003 -0.000021 -0.000263 -16.587800 -2.192510 6.469440 -0.000001 175.465000 10.216400 164.807000 -39.081100 -0.002282 -0.040193 0.146281 -0.054450 69.175600 -40.985400 0.000008 0.000006 5.980460 -5.777200 -45.787100 -11.754300 -0.000006 -0.000006 -0.025169 -0.194399 -24.526700
0.000000 0.000000 0.000000 0.000000 0.000000 -0.000000 -6.287820 91.162200 42.925300 -88.688900 0.493619 -173.244000 15.735700 0.000005 -0.000001 85.355600 82.612800 -85.217400 8.984550 -0.406207 -0.000000 6.962490 -1.193200 0.348773 16.377300 -0.000001 -0.000001 5.549520 -1.925490 -1.330200 6.456720 -0.000001 -0.000000 2.613960 -0.922344 0.071470 12.994200 -0.242716 4.980390 -89.469500 -1.672120 -72.394900 5.348090 -0.000007 -0.000001 -63.955000 32.351200 -24.750500 24.328600 0.000019 0.000005 -0.050523 -0.092056 -28.789000 22.291600 -0.000001 0.000005 9.232770 5.498290 -6.464480 12.994500 -0.242716 -4.980390 88.432900 4.778010 -71.817300 -5.348130 -0.000001 -0.000004 -74.205000 28.856300 -9.396440 -24.328900 0.000322 -0.000009 2.488750 12.815900 -11.090700 -22.291500 -0.000108 -0.000004 7.007910 5.292030 0.297505 -2.192480 -6.469440 -0.000000 -179.171000 -7.448770 -5.114220 39.081100 -0.000007 -0.000012 -0.143365 0.245374 30.296700 40.985400 -0.000006 -0.000013 1.694910 -2.131210 -68.911300 11.754300 -0.000000 0.000003 -0.000018 -0.000229 -16.586500 -2.192510 6.469440 -0.000001 177.333000 12.999100 162.046000 -39.081100 -0.002282 -0.040193 0.122664 -0.057749 64.206100 -40.985400 0.000008 0.000006 5.941160 -6.651380 -49.184700 -11.754300 -0.000006 -0.000006 -0.025524 -0.196165 -24.599700
0.000000 0.000000 0.000000 0.000000 0.000000 -0.000000 -6.307140 91.502600 39.617500 -87.895500 -0.848596 -173.732000 15.735700 0.000005 -0.000001 82.109800 82.684100 -81.583200 8.984550 -0.406207 -0.000000 6.739910 -2.006830 1.170370 16.377300 -0.000001 -0.000001 5.468290 -2.351010 -1.379860 6.456720 -0.000001 -0.000000 2.476180 -0.792388 0.364123 12.994200 -0.242716 4.980390 -89.415700 -1.897870 -72.883800 5.348090 -0.000007 -0.000001 -61.373700 31.422800 -29.738800 24.328600 0.000019 0.000005 -0.385346 -0.625056 -31.629900 22.291600 -0.000001 0.000005 9.246880 5.502880 -6.649400 12.994500 -0.242716 -4.980390 88.441600 4.580810 -71.188500 -5.348130 -0.000001 -0.000004 -75.770600 27.291600 -4.181160 -24.328900 0.000322 -0.000009 2.179110 11.224700 -11.065800 -22.291500 -0.000108 -0.000004 6.349000 5.291080 0.320861 -2.192480 -6.469440 -0.000000 -178.335000 -6.030120 -1.842840 39.081100 -0.000007 -0.000012 -0.135381 0.261346 27.384900 40.985400 -0.000006 -0.000013 1.375000 -2.216690 -69.768400 11.754300 -0.000000 0.000003 -0.000050 -0.000570 -16.599700 -2.192510 6.469440 -0.000001 179.359000 14.674500 159.847000 -39.081100 -0.002282 -0.040193 0.085431 -0.055368 56.039900 -40.985400 0.000008 0.000006 5.650300 -6.904460 -51.191900 -11.754300 -0.000006 -0.000006 -0.026147 -0.199229 -24.726500
0.000000 0.000000 0.000000 0.000000 0.000000 -0.000000 -6.270170 91.573400 36.420200 -87.379600 -2.064530 -174.372000 15.735700 0.000005 -0.000001 78.701800 82.711000 -77.922300 8.984550 -0.406207 -0.000000 6.555610 -2.855530 1.721060 16.377300 -0.000001 -0.000001 5.165310 -2.550800 -1.252390 6.456720 -0.000001 -0.000000 2.225380 -0.633160 0.649675 12.994200 -0.242716 4.980390 -89.298500 -2.348530 -73.362500 5.348090 -0.000007 -0.000001 -59.621400 29.613800 -33.630200 24.328600 0.000019 0.000005 -0.755608 -1.086690 -34.804200 22.291600 -0.000001 0.000005 9.701830 5.513740 -7.095100 12.994500 -0.242716 -4.980390 88.413200 4.534550 -70.689800 -5.348130 -0.000001 -0.000004 -76.491700 26.686000 -0.116746 -24.328900 0.000322 -0.000009 2.300470 11.894500 -11.034500 -22.291500 -0.000108 -0.000004 6.120510 5.298540 0.113347 -2.192480 -6.469440 -0.000000 -177.533000 -5.533020 0.879191 39.081100 -0.000007 -0.000012 -0.143680 0.307713 25.029400 40.985400 -0.000006 -0.000013 1.178720 -1.555500 -70.806800 11.754300 -0.000000 0.000003 -0.000056 -0.000624 -16.601800 -2.192510 6.469440 -0.000001 -178.845000 16.060300 158.855000 -39.081100 -0.002282 -0.040193 0.049473 -0.046863 44.596500 -40.985400 0.000008 0.000006 5.452430 -6.384430 -52.182300 -11.754300 -0.000006 -0.000006 -0.026058 -0.198794 -24.708500
0.000000 0.000000 0.000000 0.000000 0.000000 -0.000000 -6.163350 91.237300 33.247400 -87.344200 -3.136760 -175.242000 15.735700 0.000005 -0.000001 74.953000 82.804100 -74.104000 8.984550 -0.406207 -0.000000 6.170850 -3.737720 1.898030 16.377300 -0.000001 -0.000001 4.875300 -2.725280 -1.065040 6.456720 -0.000001 -0.000000 2.069070 -0.400552 0.893257 12.994200 -0.242716 4.980390 -89.202200 -2.737070 -73.741900 5.348090 -0.000007 -0.000001 -57.930100 27.787800 -36.495000 24.328600 0.000019 0.000005 -1.159730 -1.470690 -38.254300 22.291600 -0.000001 0.000005 10.656300 5.525940 -7.613770 12.994500 -0.242716 -4.980390 88.402200 4.442780 -70.196200 -5.348130 -0.000001 -0.000004 -76.982500 26.817900 2.992450 -24.328900 0.000322 -0.000009 2.384010 13.061400 -10.442900 -22.291500 -0.000108 -0.000004 6.461410 5.302960 -0.010939 -2.192480 -6.469440 -0.000000 -176.988000 -5.589770 2.786260 39.081100 -0.000007 -0.000012 -0.164455 0.369262 24.006500 40.985400 -0.000006 -0.000013 1.059390 -0.279314 -72.574200 11.754300 -0.000000 0.000003 -0.000082 -0.000869 -16.611000 -2.192510 6.469440 -0.000001 -177.566000 16.853800 158.648000 -39.081100 -0.002282 -0.040193 0.023627 -0.033929 30.925400 -40.985400 0.000008 0.000006 4.373970 -4.939410 -51.524300 -11.754300 -0.000006 -0.000006 -0.025646 -0.196767 -24.624600
0.000000 0.000000 0.000000 0.000000 0.000000 -0.000000 -6.030990 90.613400 29.935300 -87.685500 -3.870840 -176.272000 15.735700 0.000005 -0.000001 71.599500 82.975500 -70.823700 8.984550 -0.406207 -0.000000 5.608410 -4.438670 1.768020 16.377300 -0.000001 -0.000001 4.754020 -2.895050 -0.917651 6.456720 -0.000001 -0.000000 1.951500 -0.213714 1.146560 12.994200 -0.242716 4.980390 -89.145300 -2.996110 -74.069200 5.348090 -0.000007 -0.000001 -56.182800 26.205800 -38.566800 24.328600 0.000019 0.000005 -1.805720 -2.039040 -41.538100 22.291600 -0.000001 0.000005 11.966000 5.541910 -8.326780 12.994500 -0.242716 -4.980390 88.417700 4.303570 -69.791000 -5.348130 -0.000001 -0.000004 -77.374900 26.390700 5.242450 -24.328900 0.000322 -0.000009 2.299830 14.256300 -9.267340 -22.291500 -0.000108 -0.000004 6.651210 5.294380 0.228970 -2.192480 -6.469440 -0.000000 -176.600000 -6.367410 4.393860 39.081100 -0.000007 -0.000012 -0.183607 0.420784 23.574000 40.985400 -0.000006 -0.000013 0.918124 1.202460 -74.735600 11.754300 -0.000000 0.000003 -0.000084 -0.000882 -16.611500 -2.192510 6.469440 -0.000001 -176.949000 16.598400 158.856000 -39.081100 -0.002282 -0.040193 0.008789 -0.017828 17.034600 -40.985400 0.000008 0.000006 2.307580 -1.821440 -50.556500 -11.754300 -0.000006 -0.000006 -0.025681 -0.196938 -24.631700
